<svg width="20" height="20" viewBox="0 0 20 20" fill="none" xmlns="http://www.w3.org/2000/svg">
<g id="SVG">
<path id="Vector" fill-rule="evenodd" clip-rule="evenodd" d="M10.293 3.29402C10.4805 3.10658 10.7347 3.00128 10.9999 3.00128C11.265 3.00128 11.5193 3.10658 11.7068 3.29402L17.7059 9.29312C17.8933 9.48062 17.9986 9.73489 17.9986 10C17.9986 10.2651 17.8933 10.5194 17.7059 10.7069L11.7068 16.706C11.5182 16.8881 11.2656 16.9889 11.0035 16.9866C10.7413 16.9844 10.4905 16.8792 10.3051 16.6938C10.1198 16.5084 10.0146 16.2577 10.0123 15.9955C10.0101 15.7334 10.1108 15.4808 10.293 15.2922L14.5853 10.9999L3.00107 10.9999C2.73589 10.9999 2.48158 10.8945 2.29407 10.707C2.10656 10.5195 2.00122 10.2652 2.00122 10C2.00122 9.73484 2.10656 9.48052 2.29407 9.29301C2.48158 9.1055 2.73589 9.00016 3.00107 9.00016L14.5853 9.00016L10.293 4.70781C10.1055 4.52031 10.0002 4.26604 10.0002 4.00092C10.0002 3.73579 10.1055 3.48152 10.293 3.29402Z" fill="#121F3E"/>
</g>
</svg>
